# xmcd
#
# Track frame offsets:
#	150
#	11275
#	28103
#	44050
#	58855
#	76780
#	93110
#	105400
#	122150
#	135940
#	154095
#	169900
#	194275
#
# Disc length: 2776 seconds
#
# Revision: 0
# Processed by: cddbd v1.5.2PL0 Copyright (c) Steve Scherf et al.
# Submitted via: EasyCDDAExtractor 4.6.0.1
#
DISCID=9c0ad60d
DTITLE=Sergio Reis - Pantaneiro
DYEAR=1900
DGENRE=Sertanejo
TTITLE0=Peão de Boiadeiro
TTITLE1=Pantanal em Silêncio
TTITLE2=Comitiva Esperança
TTITLE3=Pra quando ela voltar
TTITLE4=Guri
TTITLE5=Sinfonia pantaneira
TTITLE6=Cavalo Preto
TTITLE7=Coração Pantaneiro
TTITLE8=Rabo de Saia
TTITLE9=Rita Donzela
TTITLE10=Porta do Mundo
TTITLE11=Lá no pé da serra
TTITLE12=Pantanal
EXTD=
EXTT0=
EXTT1=
EXTT2=
EXTT3=
EXTT4=
EXTT5=
EXTT6=
EXTT7=
EXTT8=
EXTT9=
EXTT10=
EXTT11=
EXTT12=
PLAYORDER=
